<mxfile host="65bd71144e">
    <diagram id="K05MGADcHKy7F_e2e1u0" name="Page-1">
        <mxGraphModel dx="478" dy="480" grid="1" gridSize="10" guides="1" tooltips="1" connect="1" arrows="1" fold="1" page="1" pageScale="1" pageWidth="827" pageHeight="1169" math="0" shadow="0">
            <root>
                <mxCell id="0"/>
                <mxCell id="1" parent="0"/>
                <mxCell id="5" style="edgeStyle=none;rounded=0;html=1;fontColor=#000000;strokeColor=#000000;" edge="1" parent="1" source="2" target="4">
                    <mxGeometry relative="1" as="geometry"/>
                </mxCell>
                <mxCell id="2" value="Start" style="strokeWidth=2;html=1;shape=mxgraph.flowchart.terminator;whiteSpace=wrap;rounded=1;fillColor=#FFFFFF;fontColor=#000000;shadow=0;sketch=0;" vertex="1" parent="1">
                    <mxGeometry x="200" y="50" width="100" height="60" as="geometry"/>
                </mxCell>
                <mxCell id="16" style="edgeStyle=none;shape=connector;rounded=0;html=1;labelBackgroundColor=default;fontFamily=Helvetica;fontSize=12;fontColor=#000000;endArrow=classic;strokeColor=#000000;" edge="1" parent="1" source="4" target="6">
                    <mxGeometry relative="1" as="geometry"/>
                </mxCell>
                <mxCell id="4" value="Get Radius" style="shape=parallelogram;html=1;strokeWidth=2;perimeter=parallelogramPerimeter;whiteSpace=wrap;rounded=1;arcSize=12;size=0.23;fontColor=#000000;fillColor=#FFFFFF;" vertex="1" parent="1">
                    <mxGeometry x="200" y="180" width="100" height="60" as="geometry"/>
                </mxCell>
                <mxCell id="17" style="edgeStyle=none;shape=connector;rounded=0;html=1;labelBackgroundColor=default;fontFamily=Helvetica;fontSize=12;fontColor=#000000;endArrow=classic;strokeColor=#000000;" edge="1" parent="1" source="6" target="7">
                    <mxGeometry relative="1" as="geometry"/>
                </mxCell>
                <mxCell id="6" value="Surface area = A=4 * π * r&lt;sup&gt;2&lt;/sup&gt;" style="rounded=1;whiteSpace=wrap;html=1;shadow=0;sketch=0;fontFamily=Helvetica;fontSize=11;fontColor=#000000;fillColor=#FFFFFF;" vertex="1" parent="1">
                    <mxGeometry x="180" y="270" width="140" height="60" as="geometry"/>
                </mxCell>
                <mxCell id="15" style="edgeStyle=none;shape=connector;rounded=0;html=1;entryX=0.577;entryY=0.167;entryDx=0;entryDy=0;entryPerimeter=0;labelBackgroundColor=default;fontFamily=Helvetica;fontSize=12;fontColor=#000000;endArrow=classic;strokeColor=#000000;" edge="1" parent="1" source="7" target="10">
                    <mxGeometry relative="1" as="geometry"/>
                </mxCell>
                <mxCell id="7" value="&lt;font style=&quot;font-size: 12px&quot;&gt;volume =&amp;nbsp;V= 4 /&lt;span&gt;&amp;nbsp;3 * π * r&lt;/span&gt;&lt;sup&gt;3&lt;/sup&gt;&lt;br&gt;&lt;/font&gt;" style="rounded=1;whiteSpace=wrap;html=1;shadow=0;sketch=0;fontFamily=Helvetica;fontSize=11;fontColor=#000000;fillColor=#FFFFFF;align=center;" vertex="1" parent="1">
                    <mxGeometry x="180" y="350" width="150" height="60" as="geometry"/>
                </mxCell>
                <mxCell id="14" style="edgeStyle=none;shape=connector;rounded=0;html=1;entryX=0.5;entryY=0;entryDx=0;entryDy=0;entryPerimeter=0;labelBackgroundColor=default;fontFamily=Helvetica;fontSize=11;fontColor=#000000;endArrow=classic;strokeColor=#000000;" edge="1" parent="1" source="10" target="13">
                    <mxGeometry relative="1" as="geometry"/>
                </mxCell>
                <mxCell id="10" value="Show&amp;nbsp;&lt;br&gt;Surface area &lt;br&gt;and&amp;nbsp;&lt;br&gt;Volume" style="shape=parallelogram;html=1;strokeWidth=2;perimeter=parallelogramPerimeter;whiteSpace=wrap;rounded=1;arcSize=12;size=0.23;shadow=0;sketch=0;fontFamily=Helvetica;fontSize=11;fontColor=#000000;fillColor=#FFFFFF;" vertex="1" parent="1">
                    <mxGeometry x="180" y="450" width="130" height="60" as="geometry"/>
                </mxCell>
                <mxCell id="13" value="Stop" style="strokeWidth=2;html=1;shape=mxgraph.flowchart.terminator;whiteSpace=wrap;rounded=1;shadow=0;sketch=0;fontFamily=Helvetica;fontSize=11;fontColor=#000000;fillColor=#FFFFFF;" vertex="1" parent="1">
                    <mxGeometry x="195" y="540" width="100" height="60" as="geometry"/>
                </mxCell>
            </root>
        </mxGraphModel>
    </diagram>
</mxfile>